<?xml version="1.0" standalone="no"?>
<!DOCTYPE svg PUBLIC "-//W3C//DTD SVG 20010904//EN"
 "http://www.w3.org/TR/2001/REC-SVG-20010904/DTD/svg10.dtd">
<svg version="1.0" xmlns="http://www.w3.org/2000/svg"
 width="1024.000000pt" height="1024.000000pt" viewBox="0 0 1024.000000 1024.000000"
 preserveAspectRatio="xMidYMid meet">
<metadata>
Created by potrace 1.14, written by Peter Selinger 2001-2017
</metadata>
<g transform="translate(0.000000,1024.000000) scale(0.100000,-0.100000)"
fill="#000000" stroke="none">
<path d="M4365 7929 c-423 -401 -785 -745 -804 -763 l-33 -34 -333 -1753
c-183 -965 -330 -1759 -327 -1765 9 -14 2274 -2054 2282 -2054 4 0 686 612
2242 2015 l47 42 -329 1739 c-182 956 -332 1749 -335 1760 -6 25 -1601 1538
-1624 1541 -9 1 -351 -315 -786 -728z m1572 -582 l782 -1252 -785 -3 c-431 -1
-1137 -1 -1568 0 l-784 3 781 1252 c430 689 784 1253 787 1253 3 0 357 -564
787 -1253z m-930 1105 c-729 -1169 -831 -1330 -842 -1316 -16 22 -109 15 -113
-8 -3 -14 6 -18 55 -20 l59 -3 -152 -243 -152 -242 -23 39 c-19 31 -27 38 -39
31 -13 -8 -11 -16 12 -58 l28 -49 -133 -213 -132 -213 -3 458 c-2 335 1 461 9
466 6 4 8 12 5 18 -4 6 -3 11 3 11 5 0 11 10 13 23 2 15 241 249 723 705 396
374 721 681 722 682 2 0 -16 -31 -40 -68z m1076 -717 c522 -493 614 -583 610
-602 -4 -17 -1 -23 12 -23 9 0 13 -5 10 -10 -4 -6 -2 -17 4 -24 8 -9 10 -149
9 -467 l-3 -453 -133 212 -132 213 25 43 c29 49 31 62 10 70 -10 4 -22 -8 -36
-36 -16 -31 -23 -38 -30 -27 -4 8 -73 118 -152 244 l-144 230 59 3 c50 2 59 6
56 20 -4 24 -97 30 -114 8 -9 -13 -90 112 -440 671 -236 377 -433 693 -438
702 -5 9 40 -31 102 -89 61 -58 388 -366 725 -685z m-2810 -2592 c-142 -523
-259 -950 -261 -949 -1 2 113 615 255 1363 l258 1360 3 -411 3 -411 -258 -952z
m3762 403 c140 -742 254 -1350 252 -1352 -1 -2 -119 423 -260 945 l-257 948 1
414 c0 228 2 410 4 404 2 -5 119 -617 260 -1359z m-315 509 c0 -17 -1564
-3115 -1572 -3113 -9 3 -1567 3094 -1568 3111 0 4 707 7 1570 7 864 0 1570 -2
1570 -5z m-2654 -1058 l414 -827 -27 -10 c-58 -21 -63 -25 -54 -39 8 -12 16
-13 51 -2 24 7 46 9 50 4 17 -18 611 -1203 603 -1203 -4 0 -493 158 -1086 352
-823 270 -1078 357 -1083 371 -3 9 -10 15 -15 12 -5 -4 -9 -4 -9 -2 0 6 629
2328 636 2347 7 20 42 -47 520 -1003z m3006 -165 c257 -949 313 -1168 302
-1175 -8 -4 -14 -13 -14 -20 0 -7 -436 -155 -1085 -368 -597 -196 -1085 -355
-1085 -353 0 2 138 276 306 609 280 554 308 606 328 601 59 -17 73 -18 79 -3
4 12 -4 19 -31 28 -20 6 -41 14 -45 16 -4 3 200 418 455 923 254 506 465 917
468 914 3 -3 147 -531 322 -1172z m-4065 -674 c-3 -8 -6 -5 -6 6 -1 11 2 17 5
13 3 -3 4 -12 1 -19z m1061 -943 c1005 -330 1062 -350 1062 -372 0 -16 6 -23
20 -23 14 0 20 7 20 24 0 21 9 27 78 50 1529 501 2066 676 2069 672 2 -2 -477
-437 -1065 -966 -930 -838 -1073 -963 -1101 -964 -29 -1 -137 94 -1074 937
-1058 952 -1114 1003 -1087 995 8 -3 493 -162 1078 -353z"/>
<path d="M4247 7144 c-4 -4 -7 -13 -7 -21 0 -9 17 -13 61 -13 52 0 60 2 57 18
-2 13 -15 18 -53 20 -28 2 -54 0 -58 -4z"/>
<path d="M4437 7144 c-4 -4 -7 -13 -7 -21 0 -9 17 -13 61 -13 52 0 60 2 57 18
-2 13 -15 18 -53 20 -28 2 -54 0 -58 -4z"/>
<path d="M4627 7144 c-4 -4 -7 -13 -7 -21 0 -9 17 -13 61 -13 52 0 60 2 57 18
-2 13 -15 18 -53 20 -28 2 -54 0 -58 -4z"/>
<path d="M4810 7130 c0 -18 6 -20 61 -20 52 0 60 2 57 18 -2 13 -15 18 -61 20
-52 3 -57 1 -57 -18z"/>
<path d="M5000 7130 c0 -18 7 -20 55 -20 48 0 55 2 55 20 0 18 -7 20 -55 20
-48 0 -55 -2 -55 -20z"/>
<path d="M5190 7130 c0 -18 7 -20 55 -20 48 0 55 2 55 20 0 18 -7 20 -55 20
-48 0 -55 -2 -55 -20z"/>
<path d="M5377 7144 c-4 -4 -7 -13 -7 -21 0 -9 17 -13 61 -13 52 0 60 2 57 18
-2 13 -15 18 -53 20 -28 2 -54 0 -58 -4z"/>
<path d="M5567 7144 c-4 -4 -7 -13 -7 -21 0 -9 17 -13 61 -13 52 0 60 2 57 18
-2 13 -15 18 -53 20 -28 2 -54 0 -58 -4z"/>
<path d="M5757 7144 c-4 -4 -7 -13 -7 -21 0 -9 17 -13 61 -13 52 0 60 2 57 18
-2 13 -15 18 -53 20 -28 2 -54 0 -58 -4z"/>
<path d="M5947 7144 c-4 -4 -7 -13 -7 -21 0 -9 17 -13 61 -13 52 0 60 2 57 18
-2 13 -15 18 -53 20 -28 2 -54 0 -58 -4z"/>
<path d="M3887 6524 c-5 -6 17 -57 41 -92 5 -7 16 -10 25 -6 15 5 14 12 -11
55 -25 46 -40 57 -55 43z"/>
<path d="M6358 6486 c-23 -39 -25 -46 -12 -57 17 -14 14 -16 48 39 15 23 24
47 21 52 -12 20 -31 9 -57 -34z"/>
<path d="M3985 6359 c-9 -13 36 -99 52 -99 24 0 23 21 -2 65 -27 46 -39 53
-50 34z"/>
<path d="M6265 6325 c-14 -25 -23 -50 -20 -55 13 -21 31 -8 57 39 23 42 25 50
12 55 -9 3 -17 6 -19 6 -2 0 -15 -20 -30 -45z"/>
<path d="M4081 6201 c-12 -7 -9 -17 13 -55 25 -43 56 -62 56 -34 0 10 -48 98
-53 98 -1 0 -8 -4 -16 -9z"/>
<path d="M6175 6170 c-28 -45 -32 -70 -10 -70 17 0 69 85 60 100 -11 18 -24
11 -50 -30z"/>
<path d="M3680 7130 c0 -18 7 -20 55 -20 48 0 55 2 55 20 0 18 -7 20 -55 20
-48 0 -55 -2 -55 -20z"/>
<path d="M3867 7144 c-4 -4 -7 -13 -7 -21 0 -9 17 -13 61 -13 52 0 60 2 57 18
-2 13 -15 18 -53 20 -28 2 -54 0 -58 -4z"/>
<path d="M3605 7010 c-7 -12 41 -100 55 -100 21 0 20 24 -5 65 -26 45 -38 54
-50 35z"/>
<path d="M3701 6851 c-11 -7 -8 -18 14 -55 25 -43 43 -55 58 -40 6 6 -44 104
-53 104 -3 0 -11 -4 -19 -9z"/>
<path d="M6320 7130 c0 -18 6 -20 61 -20 52 0 60 2 57 18 -2 13 -15 18 -61 20
-52 3 -57 1 -57 -18z"/>
<path d="M6510 7130 c0 -18 7 -20 55 -20 48 0 55 2 55 20 0 18 -7 20 -55 20
-48 0 -55 -2 -55 -20z"/>
<path d="M6662 7008 c-25 -32 -43 -81 -34 -90 6 -6 15 -7 21 -3 17 10 53 84
46 95 -8 14 -21 12 -33 -2z"/>
<path d="M6548 6811 c-15 -26 -25 -51 -21 -55 15 -15 33 -3 58 40 22 37 25 48
14 55 -21 13 -22 12 -51 -40z"/>
<path d="M4173 6039 c-8 -8 -3 -24 19 -61 24 -39 33 -46 44 -37 12 9 9 19 -14
60 -29 53 -32 55 -49 38z"/>
<path d="M6075 5999 c-22 -41 -25 -53 -14 -59 18 -12 24 -7 52 44 18 32 22 47
14 55 -18 18 -22 14 -52 -40z"/>
<path d="M4270 5876 c-15 -20 34 -108 56 -99 8 3 14 9 14 13 0 8 -50 100 -55
100 -1 0 -8 -6 -15 -14z"/>
<path d="M5981 5836 c-22 -40 -22 -66 -1 -66 9 0 60 83 60 99 0 6 -8 11 -18
11 -10 0 -27 -17 -41 -44z"/>
<path d="M4357 5713 c-5 -5 29 -76 48 -101 1 -1 10 0 19 4 14 5 13 12 -11 55
-25 46 -41 58 -56 42z"/>
<path d="M5886 5674 c-26 -46 -26 -64 -2 -64 15 0 69 94 59 104 -15 15 -33 3
-57 -40z"/>
<path d="M4455 5550 c-7 -11 29 -85 46 -95 6 -4 15 -3 21 3 7 7 1 25 -17 56
-27 46 -39 54 -50 36z"/>
<path d="M5795 5515 c-25 -41 -26 -65 -5 -65 15 0 62 80 56 96 -9 24 -24 15
-51 -31z"/>
<path d="M4552 5391 c-11 -7 -8 -19 15 -59 24 -42 32 -49 46 -40 17 9 16 12
-4 46 -32 53 -42 63 -57 53z"/>
<path d="M5698 5351 c-15 -27 -24 -52 -21 -55 15 -15 34 -2 59 40 22 38 25 48
13 55 -21 13 -22 12 -51 -40z"/>
<path d="M4651 5230 c-12 -7 -12 -14 -2 -37 20 -47 44 -73 60 -64 11 7 8 18
-15 59 -22 38 -33 49 -43 42z"/>
<path d="M5607 5194 c-31 -52 -33 -60 -12 -68 10 -3 23 9 40 38 28 48 31 62
12 69 -8 3 -24 -13 -40 -39z"/>
<path d="M4735 5060 c-3 -5 6 -29 21 -52 34 -55 32 -54 46 -40 10 10 7 22 -12
57 -24 43 -42 55 -55 35z"/>
<path d="M5511 5030 c-22 -39 -23 -70 -2 -70 13 0 62 90 55 101 -11 19 -31 7
-53 -31z"/>
<path d="M4832 4903 c-15 -6 36 -103 55 -103 23 0 22 18 -3 64 -26 46 -29 49
-52 39z"/>
<path d="M5415 4865 c-14 -25 -23 -50 -20 -55 13 -21 31 -8 57 39 24 42 26 50
12 55 -9 3 -17 6 -19 6 -2 0 -15 -20 -30 -45z"/>
<path d="M4931 4741 c-12 -7 -9 -17 13 -55 25 -43 56 -62 56 -34 0 10 -48 98
-53 98 -1 0 -8 -4 -16 -9z"/>
<path d="M5336 4728 c-40 -62 -45 -97 -12 -85 19 7 59 84 51 97 -10 16 -24 12
-39 -12z"/>
<path d="M5023 4579 c-9 -9 -8 -18 3 -35 46 -77 45 -76 59 -64 12 10 10 20
-13 61 -29 53 -32 55 -49 38z"/>
<path d="M5228 4541 c-33 -57 -33 -57 -13 -65 21 -8 78 83 63 101 -16 20 -21
17 -50 -36z"/>
<path d="M5121 4421 c-8 -5 -11 -16 -8 -25 4 -9 0 -19 -9 -24 -19 -10 -8 -43
12 -35 8 3 14 -1 14 -11 0 -9 8 -16 20 -16 12 0 20 7 20 16 0 10 6 14 14 11
19 -8 31 25 12 35 -9 5 -12 16 -9 29 5 19 3 21 -20 17 -15 -3 -28 -1 -29 3 -2
5 -9 4 -17 0z"/>
<path d="M4960 4326 c-45 -16 -56 -52 -14 -43 52 10 84 26 84 42 0 18 -22 18
-70 1z"/>
<path d="M5270 4326 c0 -17 31 -33 83 -43 21 -4 27 -2 27 11 0 17 -31 33 -82
43 -22 4 -28 2 -28 -11z"/>
<path d="M4798 4271 c-27 -9 -48 -19 -49 -24 -2 -24 10 -26 56 -11 60 20 59
19 48 37 -7 12 -15 12 -55 -2z"/>
<path d="M5446 4275 c-3 -9 -6 -18 -6 -20 0 -2 23 -11 51 -20 43 -15 53 -15
60 -4 14 22 11 25 -32 38 -23 7 -47 15 -54 17 -7 3 -15 -2 -19 -11z"/>
<path d="M5132 4183 c2 -44 7 -58 18 -58 11 0 16 14 18 58 3 52 1 57 -18 57
-19 0 -21 -5 -18 -57z"/>
<path d="M4613 4213 c-39 -13 -53 -30 -37 -45 3 -3 27 1 55 10 35 11 49 21 49
34 0 21 -11 22 -67 1z"/>
<path d="M5620 4212 c0 -13 14 -23 49 -34 28 -9 52 -13 55 -10 16 15 1 32 -41
46 -59 20 -63 20 -63 -2z"/>
<path d="M5130 3995 c0 -48 2 -55 20 -55 18 0 20 7 20 55 0 48 -2 55 -20 55
-18 0 -20 -7 -20 -55z"/>
<path d="M5130 3810 c0 -53 2 -60 20 -60 18 0 20 7 20 60 0 53 -2 60 -20 60
-18 0 -20 -7 -20 -60z"/>
<path d="M5130 3625 c0 -48 2 -55 20 -55 18 0 20 7 20 55 0 48 -2 55 -20 55
-18 0 -20 -7 -20 -55z"/>
<path d="M5130 3440 c0 -53 2 -60 20 -60 18 0 20 7 20 60 0 53 -2 60 -20 60
-18 0 -20 -7 -20 -60z"/>
<path d="M5130 3255 c0 -48 2 -55 20 -55 18 0 20 7 20 55 0 48 -2 55 -20 55
-18 0 -20 -7 -20 -55z"/>
<path d="M5137 3124 c-4 -4 -7 -31 -7 -61 0 -47 2 -53 20 -53 19 0 21 5 18 57
-3 52 -14 73 -31 57z"/>
<path d="M4275 4100 c-56 -19 -70 -47 -21 -42 49 5 84 25 77 43 -5 15 -10 15
-56 -1z"/>
<path d="M4098 4043 c-37 -10 -48 -18 -48 -34 0 -14 5 -19 14 -16 8 3 32 11
55 18 37 11 53 31 34 42 -5 3 -29 -2 -55 -10z"/>
<path d="M3916 3984 c-48 -17 -48 -17 -40 -37 6 -16 10 -15 101 18 15 5 6 35
-11 34 -6 0 -29 -7 -50 -15z"/>
<path d="M3740 3926 c-45 -16 -56 -52 -14 -43 52 10 84 26 84 42 0 18 -22 18
-70 1z"/>
<path d="M3578 3871 c-27 -9 -48 -19 -49 -24 -2 -24 10 -26 56 -11 60 20 59
19 48 37 -7 12 -15 12 -55 -2z"/>
<path d="M3393 3813 c-39 -13 -53 -30 -37 -45 3 -3 28 1 55 10 33 11 49 21 47
31 -4 20 -17 21 -65 4z"/>
<path d="M3214 3754 c-33 -12 -41 -19 -37 -34 5 -19 7 -19 100 15 15 5 6 35
-11 34 -6 0 -30 -7 -52 -15z"/>
<path d="M3040 3696 c-30 -11 -56 -46 -33 -46 31 1 99 30 101 44 4 19 -18 20
-68 2z"/>
<path d="M5967 4096 c-4 -11 8 -19 43 -31 27 -9 54 -14 60 -10 22 14 8 31 -35
43 -57 15 -62 15 -68 -2z"/>
<path d="M6147 4053 c-17 -16 -4 -33 34 -43 22 -6 47 -14 55 -17 9 -3 14 2 14
15 0 15 -12 24 -47 36 -54 19 -48 18 -56 9z"/>
<path d="M6316 3985 c-3 -9 0 -18 7 -20 90 -33 95 -34 101 -18 3 8 6 16 6 18
0 4 -90 35 -101 35 -4 0 -10 -7 -13 -15z"/>
<path d="M6490 3926 c0 -17 31 -33 83 -43 21 -4 27 -2 27 11 0 17 -31 33 -82
43 -22 4 -28 2 -28 -11z"/>
<path d="M6666 3875 c-3 -9 -6 -18 -6 -20 0 -2 23 -11 51 -20 43 -15 53 -15
60 -4 14 22 11 25 -32 38 -23 7 -47 15 -54 17 -7 3 -15 -2 -19 -11z"/>
<path d="M6840 3812 c0 -13 12 -23 41 -31 23 -7 47 -15 55 -18 9 -3 14 2 14
15 0 15 -12 24 -47 36 -59 20 -63 20 -63 -2z"/>
<path d="M7015 3760 c-3 -5 -4 -14 -1 -19 8 -13 93 -34 105 -26 21 12 11 23
-36 39 -55 19 -60 19 -68 6z"/>
<path d="M7190 3695 c0 -16 32 -32 83 -42 22 -4 27 -2 27 14 0 14 -12 22 -45
31 -58 15 -65 15 -65 -3z"/>
<path d="M5130 2695 c0 -48 2 -55 20 -55 18 0 20 7 20 55 0 48 -2 55 -20 55
-18 0 -20 -7 -20 -55z"/>
<path d="M5130 2510 c0 -53 2 -60 20 -60 18 0 20 7 20 60 0 53 -2 60 -20 60
-18 0 -20 -7 -20 -60z"/>
<path d="M5130 2325 c0 -48 2 -55 20 -55 18 0 20 7 20 55 0 48 -2 55 -20 55
-18 0 -20 -7 -20 -55z"/>
<path d="M5130 2140 c0 -53 2 -60 20 -60 18 0 20 7 20 60 0 53 -2 60 -20 60
-18 0 -20 -7 -20 -60z"/>
<path d="M5132 1953 c2 -44 7 -58 18 -58 11 0 16 14 18 58 3 52 1 57 -18 57
-19 0 -21 -5 -18 -57z"/>
<path d="M5130 1765 c0 -48 2 -55 20 -55 18 0 20 7 20 55 0 48 -2 55 -20 55
-18 0 -20 -7 -20 -55z"/>
</g>
</svg>
