<?xml version="1.0" standalone="no"?>
<!DOCTYPE svg PUBLIC "-//W3C//DTD SVG 20010904//EN"
 "http://www.w3.org/TR/2001/REC-SVG-20010904/DTD/svg10.dtd">
<svg version="1.0" xmlns="http://www.w3.org/2000/svg"
 width="1200.000000pt" height="1200.000000pt" viewBox="0 0 1200.000000 1200.000000"
 preserveAspectRatio="xMidYMid meet">
<metadata>
Created by potrace 1.14, written by Peter Selinger 2001-2017
</metadata>
<g transform="translate(0.000000,1200.000000) scale(0.100000,-0.100000)"
fill="#000000" stroke="none">
<path d="M5210 9116 c-432 -426 -788 -785 -793 -798 -10 -30 -647 -3542 -647
-3567 0 -14 366 -364 1110 -1063 610 -574 1115 -1044 1122 -1046 7 -1 514 468
1126 1043 829 780 1112 1051 1112 1068 0 19 -631 3504 -645 3563 -5 22 -1567
1567 -1588 1571 -6 2 -365 -345 -797 -771z m1569 -557 l768 -1284 -767 -3
c-423 -1 -1117 -1 -1542 0 l-774 3 770 1287 c424 708 772 1285 773 1284 2 -2
349 -581 772 -1287z m-868 1194 c-5 -10 -270 -454 -589 -987 l-580 -969 -21
42 c-12 22 -26 41 -31 41 -20 0 -17 -18 9 -61 l28 -44 -136 -230 -136 -229 -3
479 c-1 349 1 481 9 486 6 4 8 12 5 18 -4 6 -2 11 4 11 6 0 10 9 8 19 -2 14
195 214 717 730 396 390 721 710 723 711 1 0 -2 -8 -7 -17z m1109 -897 c373
-369 514 -513 512 -527 -2 -10 2 -19 8 -19 6 0 8 -5 4 -11 -3 -6 -1 -14 5 -18
8 -5 10 -136 9 -484 l-3 -477 -130 216 c-71 119 -132 221 -134 226 -2 5 8 31
23 57 24 44 25 61 5 61 -5 0 -18 -19 -30 -41 l-21 -41 -561 938 c-309 517
-575 962 -591 989 -24 42 5 17 180 -156 115 -113 441 -434 724 -713z m840
-2155 c143 -788 259 -1438 258 -1443 -2 -5 -122 445 -266 1000 l-262 1009 0
438 c0 241 2 436 4 434 2 -2 122 -649 266 -1438z m-3707 -463 c-147 -565 -268
-1026 -269 -1025 -3 3 523 2906 528 2917 2 3 4 -190 5 -429 l3 -435 -267
-1028z m3395 989 c-2 -8 -210 -443 -463 -968 l-460 -955 -26 13 c-45 22 -89
28 -89 11 0 -14 82 -46 102 -40 4 1 -37 -89 -91 -201 -54 -111 -189 -392 -301
-624 -112 -233 -208 -423 -215 -423 -13 0 -608 1228 -600 1240 2 4 25 13 50
20 25 7 45 19 45 26 0 18 -6 17 -63 -2 -30 -10 -45 -20 -41 -27 5 -8 4 -9 -3
-2 -11 11 -933 1926 -933 1938 0 4 696 7 1546 7 1285 0 1545 -2 1542 -13z
m-2338 -1625 c419 -871 760 -1585 758 -1587 -1 -2 -383 127 -848 286 -1285
439 -1290 441 -1284 450 3 5 -3 13 -14 17 -17 7 2 86 297 1220 173 666 318
1209 322 1205 4 -5 350 -720 769 -1591z m2685 375 c294 -1130 311 -1202 293
-1209 -11 -4 -17 -12 -14 -17 3 -5 -67 -34 -157 -65 -523 -181 -1972 -674
-1975 -672 -1 2 322 678 719 1502 397 825 742 1542 767 1594 25 52 47 89 50
82 2 -8 145 -555 317 -1215z m232 -759 c-3 -8 -6 -5 -6 6 -1 11 2 17 5 13 3
-3 4 -12 1 -19z m-3202 -882 c945 -323 1060 -365 1063 -384 4 -28 30 -29 34
-1 3 19 127 64 1067 386 585 200 1065 362 1067 361 1 -2 -478 -454 -1064
-1005 -587 -552 -1068 -998 -1070 -993 -5 13 -29 13 -34 0 -2 -6 -1884 1751
-2137 1996 -2 2 0 4 5 4 5 -1 486 -164 1069 -364z"/>
<path d="M5120 8324 c0 -12 10 -14 52 -12 74 4 77 28 4 28 -44 0 -56 -3 -56
-16z"/>
<path d="M5300 8325 c0 -12 13 -15 55 -15 42 0 55 3 55 15 0 12 -13 15 -55 15
-42 0 -55 -3 -55 -15z"/>
<path d="M5490 8324 c0 -12 10 -14 52 -12 74 4 77 28 4 28 -44 0 -56 -3 -56
-16z"/>
<path d="M5670 8325 c0 -12 13 -15 55 -15 42 0 55 3 55 15 0 12 -13 15 -55 15
-42 0 -55 -3 -55 -15z"/>
<path d="M5860 8324 c0 -12 10 -14 52 -12 74 4 77 28 4 28 -44 0 -56 -3 -56
-16z"/>
<path d="M6040 8325 c0 -12 13 -15 55 -15 42 0 55 3 55 15 0 12 -13 15 -55 15
-42 0 -55 -3 -55 -15z"/>
<path d="M6230 8324 c0 -12 10 -14 52 -12 74 4 77 28 4 28 -44 0 -56 -3 -56
-16z"/>
<path d="M6420 8325 c0 -11 12 -15 50 -15 38 0 50 4 50 15 0 11 -12 15 -50 15
-38 0 -50 -4 -50 -15z"/>
<path d="M6600 8324 c0 -12 10 -14 52 -12 74 4 77 28 4 28 -44 0 -56 -3 -56
-16z"/>
<path d="M6790 8325 c0 -11 12 -15 50 -15 38 0 50 4 50 15 0 11 -12 15 -50 15
-38 0 -50 -4 -50 -15z"/>
<path d="M4774 7705 c-5 -11 18 -61 42 -94 2 -1 7 0 13 4 7 4 2 23 -14 56 -27
53 -33 57 -41 34z"/>
<path d="M7197 7672 c-25 -46 -26 -62 -5 -62 16 0 53 89 42 100 -7 7 -19 -5
-37 -38z"/>
<path d="M4865 7540 c-10 -16 45 -104 57 -92 6 6 2 24 -11 50 -23 45 -36 57
-46 42z"/>
<path d="M7123 7538 c-12 -15 -43 -74 -43 -83 0 -3 7 -5 15 -5 19 0 60 79 47
92 -5 5 -13 4 -19 -4z"/>
<path d="M4950 7373 c0 -14 51 -93 60 -93 16 0 12 19 -12 61 -19 33 -48 53
-48 32z"/>
<path d="M7012 7341 c-25 -44 -28 -61 -9 -61 7 0 23 20 35 45 26 53 26 55 9
55 -7 0 -23 -17 -35 -39z"/>
<path d="M4560 8325 c0 -12 13 -15 55 -15 42 0 55 3 55 15 0 12 -13 15 -55 15
-42 0 -55 -3 -55 -15z"/>
<path d="M4750 8325 c0 -11 12 -15 50 -15 38 0 50 4 50 15 0 11 -12 15 -50 15
-38 0 -50 -4 -50 -15z"/>
<path d="M4930 8325 c0 -12 13 -15 55 -15 42 0 55 3 55 15 0 12 -13 15 -55 15
-42 0 -55 -3 -55 -15z"/>
<path d="M4490 8203 c0 -19 46 -93 57 -93 18 0 16 9 -9 58 -20 36 -48 57 -48
35z"/>
<path d="M4585 8040 c-3 -5 6 -30 21 -56 35 -60 54 -44 23 20 -23 46 -33 54
-44 36z"/>
<path d="M6970 8325 c0 -12 13 -15 55 -15 42 0 55 3 55 15 0 12 -13 15 -55 15
-42 0 -55 -3 -55 -15z"/>
<path d="M7160 8325 c0 -11 12 -15 50 -15 38 0 50 4 50 15 0 11 -12 15 -50 15
-38 0 -50 -4 -50 -15z"/>
<path d="M7340 8325 c0 -12 13 -15 55 -15 42 0 55 3 55 15 0 12 -13 15 -55 15
-42 0 -55 -3 -55 -15z"/>
<path d="M7472 8165 c-14 -28 -18 -47 -11 -51 6 -3 11 -4 13 -3 16 22 46 79
46 88 0 27 -28 7 -48 -34z"/>
<path d="M7381 8004 c-31 -65 -12 -81 24 -20 24 41 26 66 6 66 -4 0 -17 -21
-30 -46z"/>
<path d="M5052 7213 c-9 -4 -5 -18 14 -53 17 -32 31 -47 40 -43 12 4 9 15 -12
52 -15 25 -27 47 -28 47 -1 1 -7 -1 -14 -3z"/>
<path d="M6917 7170 c-22 -39 -24 -49 -13 -53 10 -4 23 9 40 40 30 53 30 50
13 56 -8 3 -24 -14 -40 -43z"/>
<path d="M5140 7040 c0 -23 41 -90 55 -90 20 0 19 6 -10 57 -24 41 -45 56 -45
33z"/>
<path d="M6826 7006 c-30 -51 -31 -56 -12 -56 15 0 67 80 59 92 -9 16 -22 6
-47 -36z"/>
<path d="M5230 6875 c0 -12 45 -95 51 -95 4 0 11 4 14 10 8 13 -37 90 -52 90
-7 0 -13 -2 -13 -5z"/>
<path d="M6732 6839 c-17 -29 -21 -44 -13 -52 12 -12 11 -14 39 36 25 44 27
57 10 57 -7 0 -24 -19 -36 -41z"/>
<path d="M5327 6714 c-3 -4 5 -29 19 -56 18 -36 29 -47 36 -40 8 8 4 24 -13
57 -24 45 -30 51 -42 39z"/>
<path d="M6641 6675 c-17 -31 -21 -49 -14 -56 12 -12 68 75 58 91 -11 18 -20
11 -44 -35z"/>
<path d="M5418 6544 c-8 -7 41 -94 52 -94 19 0 17 17 -7 58 -24 41 -33 48 -45
36z"/>
<path d="M6547 6506 c-23 -42 -25 -56 -6 -56 11 0 59 82 53 92 -10 16 -23 7
-47 -36z"/>
<path d="M5515 6379 c-7 -11 35 -99 47 -99 18 0 16 22 -8 64 -28 50 -30 51
-39 35z"/>
<path d="M6456 6345 c-24 -43 -26 -65 -8 -65 4 0 18 20 32 45 18 32 21 48 13
56 -7 7 -18 -3 -37 -36z"/>
<path d="M5605 6210 c-8 -13 37 -90 53 -90 16 0 16 2 -10 55 -22 45 -32 53
-43 35z"/>
<path d="M6362 6175 c-26 -53 -26 -55 -9 -55 17 0 60 76 52 90 -11 18 -21 10
-43 -35z"/>
<path d="M5690 6044 c0 -13 53 -94 61 -94 14 0 11 17 -11 60 -11 22 -27 40
-35 40 -8 0 -15 -3 -15 -6z"/>
<path d="M6268 6005 c-35 -72 -4 -76 32 -5 24 47 24 50 5 50 -8 0 -25 -20 -37
-45z"/>
<path d="M5793 5882 c-9 -5 -5 -20 15 -53 37 -64 60 -54 27 12 -14 27 -26 49
-28 49 -1 0 -7 -4 -14 -8z"/>
<path d="M6179 5845 c-17 -31 -20 -48 -13 -55 7 -7 18 4 37 38 24 45 26 62 7
62 -4 0 -18 -20 -31 -45z"/>
<path d="M5880 5710 c0 -22 43 -90 57 -90 18 0 16 9 -10 54 -22 39 -47 58 -47
36z"/>
<path d="M6102 5708 c-34 -43 -44 -88 -21 -88 9 0 49 73 49 90 0 14 -15 13
-28 -2z"/>
<path d="M5975 5550 c-3 -5 -3 -15 0 -21 4 -6 -1 -16 -11 -23 -20 -15 -11 -38
11 -29 9 3 15 -1 15 -11 0 -9 7 -16 15 -16 8 0 15 7 15 16 0 10 6 14 15 11 21
-9 31 14 11 28 -9 7 -14 19 -10 28 6 18 -12 32 -21 17 -5 -8 -11 -8 -20 0 -9
8 -15 8 -20 0z"/>
<path d="M5808 5452 c-33 -12 -45 -21 -40 -30 11 -16 102 14 102 34 0 17 -3
17 -62 -4z"/>
<path d="M6140 5456 c0 -15 86 -49 101 -40 19 11 7 23 -38 38 -57 20 -63 20
-63 2z"/>
<path d="M5628 5392 c-45 -14 -66 -42 -33 -42 22 0 95 31 95 40 0 17 -15 17
-62 2z"/>
<path d="M6326 5402 c-13 -12 -4 -21 41 -36 56 -19 63 -20 63 -3 0 14 -95 49
-104 39z"/>
<path d="M5990 5315 c0 -42 3 -55 15 -55 12 0 15 13 15 55 0 42 -3 55 -15 55
-12 0 -15 -13 -15 -55z"/>
<path d="M5990 5125 c0 -42 3 -55 15 -55 12 0 15 13 15 55 0 42 -3 55 -15 55
-12 0 -15 -13 -15 -55z"/>
<path d="M5990 4935 c0 -42 3 -55 15 -55 12 0 15 13 15 55 0 42 -3 55 -15 55
-12 0 -15 -13 -15 -55z"/>
<path d="M5990 4745 c0 -42 3 -55 15 -55 12 0 15 13 15 55 0 42 -3 55 -15 55
-12 0 -15 -13 -15 -55z"/>
<path d="M5990 4555 c0 -42 3 -55 15 -55 12 0 15 13 15 55 0 42 -3 55 -15 55
-12 0 -15 -13 -15 -55z"/>
<path d="M5990 4365 c0 -42 3 -55 15 -55 12 0 15 13 15 55 0 42 -3 55 -15 55
-12 0 -15 -13 -15 -55z"/>
<path d="M5990 4175 c0 -42 3 -55 15 -55 12 0 15 13 15 55 0 42 -3 55 -15 55
-12 0 -15 -13 -15 -55z"/>
<path d="M5253 5263 c-24 -8 -43 -21 -43 -29 0 -18 5 -18 63 3 26 9 46 21 44
27 -5 16 -19 15 -64 -1z"/>
<path d="M5072 5201 c-46 -18 -56 -37 -19 -34 38 3 77 22 77 38 0 18 -3 18
-58 -4z"/>
<path d="M4880 5136 c-40 -15 -58 -53 -19 -41 54 18 89 36 84 45 -8 13 -21 12
-65 -4z"/>
<path d="M4695 5073 c-50 -20 -51 -21 -39 -33 14 -14 104 18 104 36 0 18 -15
17 -65 -3z"/>
<path d="M4518 5012 c-43 -14 -67 -42 -36 -42 21 0 98 32 98 41 0 15 -16 16
-62 1z"/>
<path d="M4320 4944 c-41 -18 -44 -20 -36 -32 8 -14 106 18 106 35 0 17 -26
16 -70 -3z"/>
<path d="M4138 4882 c-35 -13 -45 -21 -39 -30 7 -11 17 -11 60 4 28 11 50 23
48 28 -5 16 -19 15 -69 -2z"/>
<path d="M3961 4821 c-52 -19 -71 -47 -25 -38 45 9 84 26 84 36 0 18 -15 19
-59 2z"/>
<path d="M6697 5273 c-14 -13 -6 -20 34 -32 23 -7 47 -15 55 -18 8 -3 14 1 14
10 0 9 -19 21 -47 31 -54 19 -48 18 -56 9z"/>
<path d="M6881 5205 c4 -19 74 -49 96 -41 24 10 13 23 -28 35 -23 7 -48 15
-56 18 -11 4 -14 1 -12 -12z"/>
<path d="M7065 5141 c-3 -6 0 -13 7 -16 91 -33 98 -34 98 -19 0 23 -93 54
-105 35z"/>
<path d="M7250 5076 c0 -15 86 -49 101 -40 19 11 7 23 -38 38 -57 20 -63 20
-63 2z"/>
<path d="M7436 5015 c-3 -9 11 -19 41 -29 56 -19 63 -20 63 -3 0 7 -22 20 -49
29 -40 13 -51 13 -55 3z"/>
<path d="M7620 4946 c0 -12 68 -38 95 -37 23 2 7 25 -25 37 -47 17 -70 17 -70
0z"/>
<path d="M7805 4890 c-9 -14 -9 -14 49 -34 39 -13 51 -13 58 -4 7 12 -5 19
-79 42 -12 4 -24 2 -28 -4z"/>
<path d="M7994 4828 c-8 -13 4 -23 45 -37 44 -14 61 -14 61 2 0 17 -98 49
-106 35z"/>
<path d="M5990 3795 c0 -42 3 -55 15 -55 12 0 15 13 15 55 0 42 -3 55 -15 55
-12 0 -15 -13 -15 -55z"/>
<path d="M5990 3605 c0 -42 3 -55 15 -55 12 0 15 13 15 55 0 42 -3 55 -15 55
-12 0 -15 -13 -15 -55z"/>
<path d="M5990 3415 c0 -42 3 -55 15 -55 12 0 15 13 15 55 0 42 -3 55 -15 55
-12 0 -15 -13 -15 -55z"/>
<path d="M5990 3225 c0 -42 3 -55 15 -55 12 0 15 13 15 55 0 42 -3 55 -15 55
-12 0 -15 -13 -15 -55z"/>
<path d="M5990 3035 c0 -42 3 -55 15 -55 12 0 15 13 15 55 0 42 -3 55 -15 55
-12 0 -15 -13 -15 -55z"/>
<path d="M5990 2845 c0 -42 3 -55 15 -55 12 0 15 13 15 55 0 42 -3 55 -15 55
-12 0 -15 -13 -15 -55z"/>
</g>
</svg>
